<svg xmlns="http://www.w3.org/2000/svg" enable-background="new 0 0 24 24" viewBox="0 0 24 24" id="ghost"><path fill="#e4e5e6" d="M2.5 23.5c1.19 0 1.19-1 2.38-1s1.19 1 2.38 1c1.188 0 1.188-1 2.376-1s1.188 1 2.375 1 1.187-1 2.375-1c1.186 0 1.186 1 2.372 1 1.184 0 1.184-1 2.369-1 1.187 0 1.187 1 2.374 1l-.638-4.467a35.985 35.985 0 0 1-.362-5.091v-4.65c0-4.527-3.416-8.48-7.934-8.773a8.5 8.5 0 0 0-9.066 8.482v4.942c0 1.703-.121 3.405-.362 5.091L2.5 23.5z"></path><path fill="#fff" d="M6.869 19.033c.14-1.686.209-3.388.209-5.091V9c0-4.57 2.089-8.297 4.707-8.491C7.19.623 3.499 4.378 3.499 9v4.942c0 1.703-.121 3.405-.362 5.091L2.5 23.5c1.19 0 1.19-1 2.38-1 .87 0 1.107.533 1.635.82l.354-4.287z" enable-background="new" opacity=".5"></path><path d="M20.862 19.033a35.985 35.985 0 0 1-.362-5.091v-4.65c0-4.527-3.416-8.48-7.934-8.773-.191-.012-.378-.007-.566-.007.109 0 .217-.005.328.007 2.616.292 4.594 4.246 4.594 8.773v4.65c0 1.703.07 3.405.209 5.091l.355 4.295c.535-.286.767-.828 1.64-.828 1.187 0 1.187 1 2.374 1l-.638-4.467z" enable-background="new" opacity=".1"></path><path fill="#303c42" d="M21.357 18.962A35.604 35.604 0 0 1 21 13.94V9.29C21 4.396 17.31.324 12.598.019c-2.52-.16-4.917.694-6.751 2.413A9.03 9.03 0 0 0 3 9v4.941a35.6 35.6 0 0 1-.357 5.021l-.638 4.467A.503.503 0 0 0 2.5 24c.776 0 1.184-.342 1.511-.617.274-.23.456-.383.869-.383.412 0 .594.152.868.383.326.274.733.617 1.511.617.776 0 1.184-.342 1.511-.618.273-.23.454-.382.865-.382s.592.152.865.382c.327.274.733.618 1.51.618s1.183-.342 1.51-.618c.273-.23.454-.382.865-.382s.591.152.864.382c.326.274.732.618 1.508.618s1.181-.343 1.507-.618c.272-.23.453-.382.862-.382.41 0 .591.152.864.382.327.274.733.618 1.51.618a.502.502 0 0 0 .495-.57l-.638-4.468zm-.722 3.655c-.327-.274-.733-.617-1.509-.617s-1.181.343-1.507.618c-.272.229-.453.382-.862.382-.41 0-.59-.152-.863-.382-.326-.275-.732-.618-1.509-.618s-1.183.342-1.51.618c-.273.229-.454.382-.865.382s-.592-.152-.865-.382c-.327-.275-.733-.618-1.51-.618s-1.183.342-1.51.617c-.273.23-.454.383-.866.383s-.594-.152-.868-.383C6.064 22.341 5.657 22 4.88 22s-1.185.342-1.512.617a3.202 3.202 0 0 1-.267.209l.531-3.723c.243-1.704.367-3.441.367-5.162V9c0-2.235.898-4.309 2.53-5.838a7.93 7.93 0 0 1 6.003-2.144c4.187.271 7.467 3.905 7.467 8.273v4.65c0 1.721.124 3.458.367 5.162l.531 3.722a3.157 3.157 0 0 1-.262-.208z"></path><path fill="#303c42" d="M9 7c-.737 0-1 1.033-1 2s.263 2 1 2 1-1.033 1-2-.263-2-1-2zM15 7c-.737 0-1 1.033-1 2s.263 2 1 2 1-1.033 1-2-.263-2-1-2z"></path><linearGradient id="a" x1="2.013" x2="23.978" y1="9.128" y2="19.37" gradientUnits="userSpaceOnUse"><stop offset="0" stop-color="#fff" stop-opacity=".2"></stop><stop offset="1" stop-color="#fff" stop-opacity="0"></stop></linearGradient><path fill="url(#a)" d="M21.356 18.962A35.792 35.792 0 0 1 21 13.941v-4.65C21 4.397 17.31.325 12.598.02c-2.52-.16-4.917.694-6.751 2.413A9.026 9.026 0 0 0 3 9v4.941c0 1.672-.12 3.361-.356 5.021l-.639 4.467A.503.503 0 0 0 2.5 24c.776 0 1.184-.342 1.511-.617.274-.23.456-.383.869-.383.412 0 .594.152.868.383.326.274.733.617 1.511.617.776 0 1.184-.342 1.511-.618.273-.23.454-.382.865-.382s.592.152.865.382c.327.274.733.618 1.51.618s1.183-.342 1.51-.618c.273-.23.454-.382.865-.382s.591.152.864.382c.326.274.732.618 1.508.618s1.181-.343 1.507-.618c.272-.23.453-.382.862-.382.41 0 .591.152.864.382.327.274.733.618 1.51.618a.502.502 0 0 0 .495-.57l-.639-4.468z"></path></svg>