<svg id="SvgjsSvg1524" width="288" height="288" xmlns="http://www.w3.org/2000/svg" version="1.1" xmlns:xlink="http://www.w3.org/1999/xlink" xmlns:svgjs="http://svgjs.com/svgjs"><defs id="SvgjsDefs1525"></defs><g id="SvgjsG1526"><svg xmlns="http://www.w3.org/2000/svg" viewBox="0 0 32 32" width="288" height="288"><g transform="translate(-13.568 -106.038)" fill="#ffffff" class="color000 svgShape"><circle cx="29.568" cy="122.038" r="16" fill="#fbfbfb" fill-rule="evenodd" class="color5dc560 svgShape"></circle><path fill="#6c795f" style="line-height:normal;text-indent:0;text-align:start;text-decoration-line:none;text-decoration-style:solid;text-decoration-color:#000;text-transform:none;block-progression:tb;isolation:auto;mix-blend-mode:normal" d="M29.568 112.207c-3.832 0-7.089 2.555-7.089 5.811v12.343c0 .871.818 1.508 1.67 1.508.85 0 1.668-.637 1.668-1.507v-2.569c0-.4.132-.65.32-.82.189-.171.45-.26.72-.257.268.002.536.094.726.26.19.166.316.395.316.739v2.647c0 .87.818 1.507 1.669 1.507.851 0 1.669-.637 1.669-1.507v-2.647c0-.383.132-.637.323-.813.19-.177.453-.272.717-.272.265 0 .524.095.715.279.19.183.327.458.327.884v2.569c0 .87.817 1.507 1.668 1.507.852 0 1.67-.637 1.67-1.507V118.018c0-3.256-3.258-5.81-7.09-5.81zm-2.653 4.954c.91 0 1.656.738 1.656 1.643s-.746 1.643-1.656 1.643c-.91 0-1.657-.738-1.657-1.643s.748-1.643 1.657-1.643zm5.084 0c.91 0 1.657.738 1.657 1.643s-.748 1.643-1.657 1.643c-.91 0-1.657-.738-1.657-1.643s.747-1.643 1.657-1.643z" color="#000" font-family="sans-serif" font-weight="400" overflow="visible" class="colorfff svgShape"></path></g></svg></g></svg>